/* XPM */
static char *acb834cb89f04b7e96a6dc03e7e5c3c3C9vgUQ7KSsnjYrAG_7[] = {
/* columns rows colors chars-per-pixel */
"32 32 36 1 ",
"  c None",
". c #020207",
"X c #040407",
"o c #020408",
"O c #060608",
"+ c #1F1508",
"@ c #211709",
"# c #39260A",
"$ c #212010",
"% c #3A3011",
"& c #3C3918",
"* c #C17B0F",
"= c #D68810",
"- c #D88910",
"; c #DB9013",
": c #DB9114",
"> c #F19911",
", c #F59B11",
"< c #F39F14",
"1 c #F4A014",
"2 c #F9C226",
"3 c #FECA29",
"4 c #FFCF2B",
"5 c #FACC2D",
"6 c #FFD02C",
"7 c #FFD430",
"8 c #FCD534",
"9 c #CCC645",
"0 c #E6DA48",
"q c #E6DC49",
"w c #E3DC4C",
"e c #E4DE4D",
"r c #FFF350",
"t c #FFF551",
"y c #FFFA56",
"u c #FFFC56",
/* pixels */
"            OOOOOOOO            ",
"            OOOOOOOO            ",
"            OOOOOOOO            ",
"            OOOOOOOO            ",
"        OOX$wyyyyyyw$XOO        ",
"        OOX$wyyyyyyw$XOO        ",
"        XX.$wyyyyyyw$.OO        ",
"        $$$&0trrttt0%+@@        ",
"    OOX$9ewq87777775:=-*@OOO    ",
"    OOX$euyt744466631>,-@OOO    ",
"    OOX$wyyt76666663<>>=@OOO    ",
"    OOX$wyyt76666663<>>=@OOO    ",
"    OOX$wyyr76666663<>>=@OOO    ",
"    OOX$wyyr76666663<>>=@OOO    ",
"    OOX$wyyr76666663<>>=@OOO    ",
"    OOX$wyyr76666663<>>=@OOO    ",
"    OOX$wyyr74666663<>>=@OOO    ",
"    OOX$wyyr74666663<>>=@OOO    ",
"    OOX$wyyr76666663<>>=@OOO    ",
"    OOX$wyyr76666663<>>=@OOO    ",
"    OOX$wyyr76666663<>>=@OOO    ",
"    OOX$wyyr76666663<>>=@OOO    ",
"    OOX$euyt766666631>,-@OOO    ",
"    OOX$9ew053333332;=-*@OOO    ",
"        $$$%:1<<<<1;#+@@        ",
"        XX.+=>>>>>>=+oOO        ",
"        OOO@=>>>>>>=@OOO        ",
"        OOO@=>>>>>>=@OOO        ",
"            OOOOOOOO            ",
"            OOOOOOOO            ",
"            OOOOOOOO            ",
"            OOOOOOOO            "
};
