/* XPM */
static char *result[] = {
/* columns rows colors chars-per-pixel */
"50 50 10 1 ",
"  c black",
". c #030302",
"X c #002F16",
"o c #015928",
"O c #586738",
"+ c #3FAD29",
"@ c #6BD925",
"# c #A9E74D",
"$ c #C0E868",
"% c #E0E8B1",
/* pixels */
"OOOOOOOOOOOOOOOOOOOOOOOOOOOOOOOOOOOOOOOOOOOOOOOOOO",
"OOOOOOOOOOOOOOOOOOOOOOOOOOOOOOOOOOOOOOOOOOOOOOOOOO",
"OOOOOOOOOOOOOOOOOOOOOOOOOOOOOOOOOOOOOOOOOOOOOOOOOO",
"OOOOOOOOOOOOOOOOOOOOOOOOOOOOOOOOOOOOOOOOOOOOOOOOOO",
"OOOOOOOOOOOOOOOOOOOOOOOOOOOOOOOOOOOOOOOOOOOOOOOOOO",
"OOOOOOOOOOOOOOOOOOOOOOOOOOOOOOOOOOOOOOOOOOOOOOOOOO",
"OOOOOOOOOOOOOOOOOOOOOOOOOOOOOOOOOOOOOOOOOOOOOOOOOO",
"OOOOOOOOOOOOOOOOOOOOOOOOOOOOOOOOOOOOOOOOOOOOOOOOOO",
"OOOOOOOOOOOOOOOOOOOOOOOOOOOOOOOOOOOOOOOOOOOOOOOOOO",
"OOOOOOOOOOOOOOOOOOOOOOOOOOOOOOOOOOOOOOOOOOOOOOOOOO",
"OOOOOOOOOOOOOOOOOOOOOOOOOOOOOOOOOOOOOOOOOOOOOOOOOO",
"OOOOOOOOOOOOOOOOOOOOOOOOOOOOOOOOOOOOOOOOOOOOOOOOOO",
"OOOOOOOOOOOOOOOOOOOOOOOOOOOOOOOOOOOOOOOOOOOOOOOOOO",
"OOOOOOOOOOOOOOOOO               OOOOOOOOOOOOOOOOOO",
"OOOOOOOOOOOOOOOOO               OOOOOOOOOOOOOOOOOO",
"OOOOOOOOOOOOOOOOO               OOOOOOOOOOOOOOOOOO",
"OOOOOOOOOOOOOO   ooo%%%%%$@@@ooo   OOOOOOOOOOOOOOO",
"OOOOOOOOOOOOOO   ooo%%%%%$@@@ooo   OOOOOOOOOOOOOOO",
"OOOOOOOOOOOOOO   ooo%%%%%$@@@ooo   OOOOOOOOOOOOOOO",
"OOOOOOOOOOO   ooo$$$%%%%%$$$$+++ooo   OOOOOOOOOOOO",
"OOOOOOOOOOO   ooo$$$%%%%%$$$$+++ooo   OOOOOOOOOOOO",
"OOOOOOOOOOO   ooo$$$%%%oooooo+++ooo   OOOOOOOOOOOO",
"OOOOOOOO   XXX+++$$$$$$oooooo++++++XXX   OOOOOOOOO",
"OOOOOOOO   XXX+++$$$$$$oooooo++++++XXX   OOOOOOOOO",
"OOOOOOOO   XXX+++oooXXXXXXXXXooo+++XXX   OOOOOOOOO",
"OOOOOOOO   ooo+++oooXXXXXXXXXooo+++ooo   OOOOOOOOO",
"OOOOOOOO   ooo+++oooXXXXXXXXXooo+++ooo   OOOOOOOOO",
"OOOOOOOO   ooo+++XXXXXXXXXXXXXXX+++ooo   OOOOOOOOO",
"OOOOOOOO   ooo+++XXXXXXXXXXXXXXX+++ooo   OOOOOOOOO",
"OOOOOOOO   ooo+++XXXXXXXXXXXXXXX+++ooo   OOOOOOOOO",
"OOOOOOOO   ooo+++XXXXXXXXXXXXXXX+++ooo   OOOOOOOOO",
"OOOOOOOO   ooo+++XXXXXXXXXXXXXXX@@@ooo   OOOOOOOOO",
"OOOOOOOO   ooo+++XXXXXXXXXXXXXXX@@@ooo   OOOOOOOOO",
"OOOOOOOO   ooo++++oooXXXXXXooo++@@@ooo   OOOOOOOOO",
"OOOOOOOO   XXX@@@+oooXXXXXXooo++@@@XXX   OOOOOOOOO",
"OOOOOOOO   XXX@@@+oooXXXXXXooo++@@@XXX   OOOOOOOOO",
"OOOOOOOO   XXX@@@+++++ooooo+++++@@@XXX   OOOOOOOOO",
"OOOOOOOOOOO   ooo###++ooooo++###ooo...OOOOOOOOOOOO",
"OOOOOOOOOOO   ooo###++ooooo++###ooo...OOOOOOOOOOOO",
"OOOOOOOOOOO   ooo###++ooooo++###ooo...OOOOOOOOOOOO",
"OOOOOOOOOOOOOO   ooo#########ooo   OOOOOOOOOOOOOOO",
"OOOOOOOOOOOOOO   ooo#########ooo   OOOOOOOOOOOOOOO",
"OOOOOOOOOOOOOO   ooo#########ooo   OOOOOOOOOOOOOOO",
"OOOOOOOOOOOOOOOOO               OOOOOOOOOOOOOOOOOO",
"OOOOOOOOOOOOOOOOO               OOOOOOOOOOOOOOOOOO",
"OOOOOOOOOOOOOOOOO               OOOOOOOOOOOOOOOOOO",
"OOOOOOOOOOOOOOOOOOOOOOOOOOOOOOOOOOOOOOOOOOOOOOOOOO",
"OOOOOOOOOOOOOOOOOOOOOOOOOOOOOOOOOOOOOOOOOOOOOOOOOO",
"OOOOOOOOOOOOOOOOOOOOOOOOOOOOOOOOOOOOOOOOOOOOOOOOOO",
"OOOOOOOOOOOOOOOOOOOOOOOOOOOOOOOOOOOOOOOOOOOOOOOOOO"
};
