/* XPM */
static char *result[] = {
/* columns rows colors chars-per-pixel */
"50 50 128 2 ",
"   c #7F5432",
".  c #775638",
"X  c #7D5538",
"o  c #7E5A3E",
"O  c #586738",
"+  c #7E5C42",
"@  c #715C48",
"#  c #756456",
"$  c #7D6E62",
"%  c #6F797E",
"&  c #767675",
"*  c #7F7D7B",
"=  c #88581F",
"-  c #84562F",
";  c #815533",
":  c #815834",
">  c #8F622D",
",  c #95692D",
"<  c #83603D",
"1  c #956D31",
"2  c #9B6B30",
"3  c #815E41",
"4  c #876245",
"5  c #8B6344",
"6  c #8F6946",
"7  c #846348",
"8  c #8C674B",
"9  c #8D694A",
"0  c #986B47",
"q  c #936B4D",
"w  c #986F4D",
"e  c #9A724E",
"r  c #8E6C52",
"t  c #926C51",
"y  c #996F52",
"u  c #966F5A",
"i  c #937254",
"p  c #9A7053",
"a  c #A47B4B",
"s  c #8F6D62",
"d  c #897464",
"f  c #CA9E3B",
"g  c #D4943E",
"h  c #CAA23E",
"j  c #D0A639",
"k  c #E7BD3F",
"l  c #F0B13E",
"z  c #FBB13A",
"x  c #ECCC3D",
"c  c #F4C938",
"v  c #F9D434",
"b  c #FCD13D",
"n  c #AD8A4D",
"m  c #C59D43",
"M  c #D09543",
"N  c #D99941",
"B  c #D19A49",
"V  c #CEA642",
"C  c #D0A744",
"Z  c #D1AA44",
"A  c #D5B143",
"S  c #C9AB55",
"D  c #F4AD40",
"F  c #F6CF49",
"G  c #F3D649",
"H  c #4F708B",
"J  c #52748D",
"K  c #557790",
"L  c #567A94",
"P  c #5A7C96",
"I  c #577E98",
"U  c #5B7D99",
"Y  c #707B82",
"T  c #5C829B",
"R  c #60859E",
"E  c #6489A3",
"W  c #6A8DA7",
"Q  c #6C8FAA",
"!  c #748FA4",
"~  c #7294AF",
"^  c #6F96B2",
"/  c #7296B2",
"(  c #7499B5",
")  c #799CB6",
"_  c #7B9DBA",
"`  c #7DA2BE",
"'  c #7EA4C1",
"]  c #898683",
"[  c #86878A",
"{  c #838991",
"}  c #9B9C9E",
"|  c #979DA1",
" . c #9A9EA3",
".. c #979EAD",
"X. c #9C9BAD",
"o. c #809EBC",
"O. c #8FA1A5",
"+. c #8DA2AC",
"@. c #91A1AD",
"#. c #8FA3B0",
"$. c #82A2BE",
"%. c #81A5C3",
"&. c #88A6C5",
"*. c #84A9C6",
"=. c #89AAC6",
"-. c #86ABC9",
";. c #8AAECB",
":. c #91AFC9",
">. c #8DB1CE",
",. c #90B1CE",
"<. c #8EB3D1",
"1. c #93B5D3",
"2. c #95B8D6",
"3. c #99B9D7",
"4. c #9CBCDB",
"5. c #A0BACF",
"6. c #B0BFC6",
"7. c #A0BCD6",
"8. c #A0BEDE",
"9. c #9CC0DE",
"0. c #A7C1D6",
"q. c #A1C1DF",
"w. c #A8C6DC",
"e. c #B5CCDF",
"r. c #A0C2E0",
"t. c #B1CAE2",
"y. c #BAD0E0",
"u. c #C8DBED",
/* pixels */
"O O O O O O O O O O O O O O O O O O O O O O O O O O O O O O O O O O O O O O O O O O O O O O O O O O ",
"O O O O O O O O O O O O O O O O O O O O O O O O O O O O O O O O O O O O O O O O O O O O O O O O O O ",
"O O O O O O O O O O O O O O O O O O O O O O O O O O O O O O O O O O O O O O O O O O O O O O O O O O ",
"O O O O O O O O O O O O O O O O O O O O O O O O O O O O O O O O O O O O O O O O O O O O O O O O O O ",
"O O O O O O O O O O O O O O O O O O 0.4.1.1.4.3.' &.1.-.3.3.>.3.w.O O O O O O O O O O O O O O O O O ",
"O O O O O O O O O O O O O O O O O u.8.4.3.:.;.3.1.;.%.8.4.2.4.8.8.u.O O O O O O O O O O O O O O O O ",
"O O O O O O O O O O O O O O O 0.+.) ) _ 3.3.4.>.;.=.%.8.8.,.,._ ) ) / 6.O O O O O O O O O O O O O O ",
"O O O O O O O O O O O O O O $./ &.&.=.=.~ 1.3.4.&.%.;.8.3.<.Q &.=.&.=.~ $.O O O O O O O O O O O O O ",
"O O O O O O O O O O O O O q.;.8.-.8.=.4.;.Q %.4._ ( 1.4.' W ;.4.;.4.*.4.;.9.O O O O O O O O O O O O ",
"O O O O O O O O O O O O &.%.%.4.;.4.3.8.;.W ;.;.;.) -.' 1./ ;.8.2.3.;.4.%.` =.O O O O O O O O O O O ",
"O O O O O O O O O O O P H H J ( >.<.;.,.:.Y ] ] ] d { * ] % :.;.;.1.1.) H H H K O O O O O O O O O O ",
"O O O O O O O O O O t.) ;.=.U J 2.4.4.;.& r q q 3 y y + q 8 $ 1.4.4.3.K R &.;.) e.O O O O O O O O O ",
"O O O O O O O O O ! >.4.-.2.4.I 4.4.3.s 3 q q q 3 q t 3 q q ; . 5.7.3.P 4.2.;.4.-.! O O O O O O O O ",
"O O O O O O O O y.1.2.4.3.;.4.4.U { r q 3 q q q 3 q q + q q q X 3 [ R 7.4.;.3.4.2.2.t.O O O O O O O ",
"O O O O O O O O T ;.;.>.>.>.3./ $ 4 q q 3 q q q 3 q q : q q q o q 8 # / 3.<.<.;.;.;.L O O O O O O O ",
"O O O O O O O O U 1.1.*.4.<.1.d 8 4 q q 3 q q q 3 q q + 9 q q o q q ; @ <.<.4.%.<.1.T O O O O O O O ",
"O O O O O O O O U %.2.' 1.$.' y 9 4 q q 3 q q q 3 q q 3 8 q q 3 q q - ; %._ 1.` 1.$.L O O O O O O O ",
"O O O O O O O O L _ _ _ _ _ _ y 9 4 q q 3 q q q 3 q q 3 q q q X q q - ; _ _ o.o._ _ K O O O O O O O ",
"O O O O O O O O T 4.4.>.3.;.3.y q 4 q q 3 q q q 3 q q 3 q q q + q q ; ; 3.;.4.;.4.8.P O O O O O O O ",
"O O O O O O O O T 3.1.3.8.4.1.y 8 4 q q 3 q q q 3 q q : q q q + q q - ; 1.3.8.4.1.3.P O O O O O O O ",
"O O O O O O O O T 1.;.4.' *.2.y 8 4 q q 3 q q q 3 q q 3 q q q X q q ; ; 1.%.' 4.;.2.P O O O O O O O ",
"O O O O O O O O I ` ;.<.%.;.<.u q 3 t q 3 t q t 3 t q ; t q t + q q - ; <.;.%.1.>.' L O O O O O O O ",
"O O O O O O O O L T T T T E T B N g N N M N N N M N N M N N N M g N g M T E R T T T K O O O O O O O ",
"O O O O O O O O T 4.4.4.4.4.4.G b b b b b b b b b F b b b b b b b b b G 3.4.4.4.4.4.U O O O O O O O ",
"O O O O O O O O T 1.' ' 4.<.9.e 6 < q q < q q 0 : 0 0 X q q 6 : 0 q - : 4.,.3.' %.1.I O O O O O O O ",
"O O O O O O O O U >.-.>.4.4.4.p 9 4 q q + q q q 3 q q 3 q q q + q q - ; 4.4.4.>.%.;.P O O O O O O O ",
"O O O O O O O O I ;.-.<.<.<.4.p 9 5 q 0 + w q q 3 y q 3 q q q + q q - ; 4.1.,.>.-.;.P O O O O O O O ",
"O O O O O O O O I %.-.2.' ' 1.p 9 4 q q + q q q 3 q q ; q q q o q q - ; ,.%.` 4.-.&.P O O O O O O O ",
"O O O O O O O O I ( %./ %./ / y 9 4 w q 3 q q q 3 q q o q q q < a e - ; ^ ^ *.^ ' / L O O O O O O O ",
"O O O O O O O O P _ ) _ _ ) ( y 9 4 q q 3 q q q 3 q q o 9 t 0 j k Z > ; ) ) _ _ _ _ L O O O O O O O ",
"O O O O O O O O U 4.4.;.4.>.>.q 9 4 q q 3 q q q 3 q q o q q M b b G 1 ; >.<.2.-.4.3.I O O O O O O O ",
"O O O O O O O O T 3.4.4.8.4.4.p 9 4 q q 3 q q q 3 q q o q 0 = c v x , X 3.4.8.4.4.4.P O O O O O O O ",
"O O O O O O O O T 2.' <.9.<.' y 9 4 q q 3 q q q 4 q q o q q 5 2 A n -   ' 2.8.<.%.2.U O O O O O O O ",
"O O O O O O O O I -.-.-.<.;.-.i 9 4 q q 3 q q q 3 q q o q q q o 9 t -   %.>.-.-.-.;.U O O O O O O O ",
"O O O O O O O O I ;.-.' ' -.%.i 9 7 t t + t t 9 + q q + t t r + t t ;   *.-.%.' -.-.L O O O O O O O ",
"O O O O O O O O J I U U U I T D z z z z z z z z z z z z z z z z z z z l U U U U U U H O O O O O O O ",
"O O O O O O O O I ;.1.<.4.<.8.S V h Z C V V V Z h C C f C C V f C C f m 8.2.4.<.1.;.L O O O O O O O ",
"O O O O O O O O U 2.2.2.4.<.8.u 9 5 q q + y q q 3 q q + t t q o q q - ; 4.1.4.2.1.1.U O O O O O O O ",
"O O O O O O O O T <.<.9.3.>.8.y 9 4 q q + q q q 3 q q 3 q q q o q t - ; 4.>.4.4.2.<.U O O O O O O O ",
"O O O O O O O O I -.-.' ;.2.4.y 9 4 q q + q q q 3 q q : t q q o q q - ; 3.2.;.' -.&.L O O O O O O O ",
"O O O O O O O O I ' ' / %._ ) y 9 4 q q 3 q q q 3 q q o r q 9 o q q ;   _ ) &.^ o.` U O O O O O O O ",
"O O O O O O O O I =.;.=.=.;.=.y 9 4 q q 3 q q q 3 q q o q q w o q q - ; ;.;.;.-.>.-.U O O O O O O O ",
"O O O O O O O O U 4.4.4.4.2.4.p 9 4 q q 3 q q q 3 q q o q q w + q q -   2.2.9.4.4.4.U O O O O O O O ",
"O O O O O O O O T 4.2.;.4.;.1.y 9 4 q q + q q q 3 q q o q q 9 o q q - ; 1.;.3.;.2.4.U O O O O O O O ",
"O O O O O O O O U 2.%.4.>.-.>.y 9 4 q q + q q t 3 q q : q q q o q q ; ; <.;.;.4.-.2.U O O O O O O O ",
"O O O O O O O O U *.1.r.' -.4.y 9 4 q q + q q 9 3 q q 3 q q q o q q - ; 2.' ' 9.<.*.L O O O O O O O ",
"O O O O O O O O L ' ' _ %.>._ r 8 7 t t + i r r + r t 3 q y r + t r ; X ' ;.%._ %.' K O O O O O O O ",
"O O O O O O O O #.+.+.+.+.+.+.#.X.O.@.@. .@.....| ....| O.@.@.} @...@.X.+.+...+.+.+...O O O O O O O ",
"O O O O O O O O O O O O O O O O O O O O O O O O O O O O O O O O O O O O O O O O O O O O O O O O O O ",
"O O O O O O O O O O O O O O O O O O O O O O O O O O O O O O O O O O O O O O O O O O O O O O O O O O "
};
