/* XPM */
static char *fbe0ebfc1b7c4e54f8d92ec54f80c9f68upyPVmDLSVjCOoI[] = {
/* columns rows colors chars-per-pixel */
"32 32 209 2 ",
"   c #0E0603",
".  c #140A05",
"X  c #140C05",
"o  c #1E150A",
"O  c #160C1A",
"+  c #191717",
"@  c #2C1405",
"#  c #241508",
"$  c #331B07",
"%  c #351907",
"&  c #3E1C04",
"*  c #251815",
"=  c #341117",
"-  c #382609",
";  c #29231B",
":  c #382516",
">  c #3B2C1B",
",  c #080425",
"<  c #100B26",
"1  c #1A0D25",
"2  c #3F0337",
"3  c #242323",
"4  c #2A2423",
"5  c #2E2A25",
"6  c #2C2C2C",
"7  c #372E25",
"8  c #3C3128",
"9  c #2E2D3B",
"0  c #460406",
"q  c #5C0405",
"w  c #50110F",
"e  c #471C1C",
"r  c #561215",
"t  c #650506",
"y  c #6A0C0C",
"u  c #740506",
"i  c #7D0506",
"p  c #76080B",
"a  c #7C071F",
"s  c #741413",
"d  c #791612",
"f  c #7D1B1C",
"g  c #4D2406",
"h  c #432A05",
"j  c #452608",
"k  c #4D2409",
"l  c #4E250E",
"z  c #463409",
"x  c #570830",
"c  c #6D1F20",
"v  c #452424",
"b  c #42372C",
"n  c #4A3D33",
"m  c #6B2824",
"M  c #712323",
"N  c #742B29",
"B  c #6D392C",
"V  c #6F3E3F",
"C  c #773333",
"Z  c #703430",
"A  c #47453B",
"S  c #5B4A37",
"D  c #574938",
"F  c #65473A",
"G  c #030249",
"H  c #0A0456",
"J  c #2C0F44",
"K  c #322C46",
"L  c #3C3B4B",
"P  c #030462",
"I  c #1E0565",
"U  c #070576",
"Y  c #2C0660",
"T  c #323471",
"R  c #4B4846",
"E  c #584E47",
"W  c #56554B",
"Q  c #595555",
"!  c #585656",
"~  c #5C5A5B",
"^  c #754748",
"/  c #635541",
"(  c #6D5C45",
")  c #76514D",
"_  c #605B58",
"`  c #73654D",
"'  c #68605D",
"]  c #776A57",
"[  c #7B6B54",
"{  c #555570",
"}  c #676666",
"|  c #6A6664",
" . c #7A7369",
".. c #6A6A72",
"X. c #747475",
"o. c gray49",
"O. c #890708",
"+. c #820F0E",
"@. c #940605",
"#. c #990608",
"$. c #861514",
"%. c #961615",
"&. c #A80607",
"*. c #B50504",
"=. c #B80A0A",
"-. c #A61517",
";. c #832727",
":. c #853232",
">. c #C40405",
",. c #CE0505",
"<. c #C90808",
"1. c #D50403",
"2. c #DD0201",
"3. c #E30202",
"4. c #EA0304",
"5. c #EB0608",
"6. c #F20303",
"7. c #FD0202",
"8. c #844639",
"9. c #814648",
"0. c #847154",
"q. c #8C785C",
"w. c #896063",
"e. c #837E7D",
"r. c #917B7C",
"t. c #A2A11B",
"y. c #BABB1A",
"u. c #959533",
"i. c #A09F20",
"p. c #A8A732",
"a. c #978466",
"s. c #A58D6B",
"d. c #AA8F6C",
"f. c #AC9572",
"g. c #AE9A76",
"h. c #B49974",
"j. c #BB9D75",
"k. c #BCA079",
"l. c #C4A97C",
"z. c #060487",
"x. c #060596",
"c. c #302E81",
"v. c #0704A2",
"b. c #0505B8",
"n. c #4D4C89",
"m. c #505090",
"M. c #0303C5",
"N. c #0403CC",
"B. c #0101D7",
"V. c #0302E3",
"C. c #0202ED",
"Z. c #0100F5",
"A. c #7F8280",
"S. c #868585",
"D. c #8B8786",
"F. c #8C8987",
"G. c #8A8A8A",
"H. c #988A8C",
"J. c #888895",
"K. c #9A9493",
"L. c #9B9B9B",
"P. c #A69B9C",
"I. c #9898A1",
"U. c #9FA0A0",
"Y. c #A3A2A3",
"T. c #ABA5A7",
"R. c #ABABAB",
"E. c #B7AAAA",
"W. c #AEB1B2",
"Q. c #B4B3B4",
"!. c #B9B5B6",
"~. c #BBBBBB",
"^. c #DB8B8A",
"/. c #D29899",
"(. c #C4AB83",
"). c #CAAD80",
"_. c #CEB488",
"`. c #D5B586",
"'. c #DAB987",
"]. c #DBBA8B",
"[. c #E0BD8C",
"{. c #C3B1B0",
"}. c #E5C28D",
"|. c #E2C190",
" X c #EAC692",
".X c #EECA95",
"XX c #F3CD95",
"oX c #F6CE99",
"OX c #F9CF9A",
"+X c #F8D197",
"@X c #BFC3C0",
"#X c #C3C3C3",
"$X c #C3C8C7",
"%X c #CCCDCD",
"&X c #CED0CE",
"*X c #D0D0CE",
"=X c #CFCFD0",
"-X c #DFCFD0",
";X c #CED0D0",
":X c #D3D3D3",
">X c #D8D8D7",
",X c #DCDCDC",
"<X c #E3E3DF",
"1X c #E4E4E4",
"2X c #E8E8E7",
"3X c #ECECEC",
"4X c #F3F3F3",
"5X c #F8F8F7",
"6X c #FDFDFD",
/* pixels */
"6X1X%X%X,X6X6X5X%X%X%X6X6X6X#XW.W.#X,X,X%X!.%X>X6X6X6X>X%X%X3X6X",
"3X1X1X1X1X3X3X3X1X1X1X#XR.P.C c c M M M M Z H.%X3X3X3X1X1X1X1X3X",
"%X1X6X6X3X%X%X>X6X<Xr.:.@.&.2.7.6.,.$.s s s +.^ F.#X&X5X6X6X,X%X",
"3X1X,X,X1X3X4X;XH.C =.4.7.7.7.1.-.) E.{.{.E.e @.$.R ,X1X,X,X2X3X",
"6X1X:X:X,X4XL.9.#.4.7.7.7.7.5.t ! -X^./.^./.4 t q * e.Q.%X%X3X6X",
":X1X6X6X1XR.v #.7.7.7.3.,.>.O.0 e V m V Z N -.*.*.*.&.:.^ ] !.%X",
",X1X4X$Xr.f <.6.7.4.&.O.u O.<.3.3.2.2.2.2.3.6.7.7.7.7.3.2.=.: U.",
"6X2X@X~ 0 5.7.4.>.i #.1.4.2.3.3.=.$.d d d d d d d s t s s N K.1X",
">XT.^ r i 5.>.O.O.<.6.1.%.B B B ) a.l.).l.l.).a.s.g.+ G.%X;X1X1X",
") %.2.4.3.3.@.p u i u 8.d. X X.Xa.; ].oXXX].q.8 b ` + _ Q.5X,X%X",
"m =.>.%.m N m l - - X [ '.XXXXoXf.n ].+Xl.` f.j.j.j.j.j.a. .~.1X",
"T.* F h.(.q._.( o z z # S .XXXXX X[..XXX X[.XXXXXXXXXXOX.Xj.5 R.",
"L.+ (.+Xk.7 g.k.0.> > * / .XXXq.D S S S S ( )..X+XoXoX[.f. .K.~.",
"~.~ a.`..X_.0.j..X`.`.`.].XXoXE . - h h h - > 0.d.s.s.] F.%X1X1X",
"6X,XG. .[ [ ` ` a.|.}.}.}.}.oXj.( : z z h h h $ o 6 D.~.%X%X3X6X",
">X1X4X,X~.Y.Y.W.L.7 5 K K b d.l.f.[ J O ; R A A | Q.>X3X4X4X1X>X",
":X1X6X6X3X>X:XY.w.u u J U P < w +.a I U T J.>X1X:X>X>X4X6X6X,X:X",
"6X1X%X:X1X3X} ;.,.7.7.1.a H x.Y a ,.=.x I U T I.<X6X5X>X:X:X3X6X",
"3X1X,X,X:XL.+ q &.&.5.7.&., M.V.z.= @.@.x z.M.x.n.W.1X<X,X,X3X3X",
"%X1X6X4XR.6 S.Y.Y.K.C y 2 v.V.x.L i.t.z H C.Z.C.n.u.W %X6X6X,X%X",
"3X1X!.G.G.>X6X6X6X6X,XA.T b.V.z.A y.y.A z.C.Z.Z.m.p.E G.$X1X1X3X",
"6X,X6 G.>XG.1XQ.L.6X5X4XY., M.Z.M.z.z.b.C.Z.Z.Z.z.6 *XR ~ :X3X6X",
">X>X6 G.%XR >XG.} 3XS.! 9 G N.Z.Z.Z.Z.Z.Z.Z.Z.Z.x.O } 3 } 6X,X>X",
">X,Xo.o.R.1X5X4X3X5X2X~ G B.C.Z.Z.Z.Z.Z.Z.Z.C.b.c...o.} L.4X1X>X",
"6X1X%XR.S.X.~ ! _ ~ _ 5 , H H v.B.B.B.B.B.M.P { ~.4XQ.#X%X%X3X6X",
"1X1X1X2X1X!.3 . @ @ @ @ % j j O , , 1 1 1 1 . ; ' Q.1X1X1X1X1X1X",
"%X1X6X6X%X~ : @ @ @ @ @ % k k & @ @ # & g g g k @ 4 #X5X6X6X,X%X",
"4X1X>X,XY.  & g g g g g g g g g g j   % g g g g @ 4 >X,X>X>X3X4X",
"6X1X:X>XY.. & g g g g g g g g g g &   @ g g g & n S.1X>X:X:X3X5X",
"%X1X6X6X~.4 X @ & & j & & & & & : 7 3 4 7 8 b D.Q.:X:X5X6X6X,X%X",
",X1X3X3X1X$XX.~ ! W ! ' | | ! E e.%X%X%X=X:X:X1X1X,X1X3X3X3X1X,X",
"6X1X%X%X,X6X6X5X%X%X:X5X6X6X,X%X%X1X6X6X3X%X%X>X6X6X6X>X%X%X3X6X"
};
