/* XPM */
static char *_7938d035b64476bd2260d700beedbf3CMB9WyFSFYyB1QFN[] = {
/* columns rows colors chars-per-pixel */
"64 64 255 2 ",
"   c #180B04",
".  c #170D18",
"X  c #260F03",
"o  c #2B1404",
"O  c #251209",
"+  c #281709",
"@  c #361906",
"#  c #3B1B06",
"$  c #361A09",
"%  c #251816",
"&  c #361B17",
"*  c #3A260B",
"=  c #2C2217",
"-  c #392617",
";  c #3E311F",
":  c #110E33",
">  c #190B39",
",  c #2E102E",
"<  c #2C2A28",
"1  c #382B28",
"2  c #332D33",
"3  c #383738",
"4  c #5A090A",
"5  c #421D03",
"6  c #441E09",
"7  c #4E0D13",
"8  c #551614",
"9  c #670A08",
"0  c #760608",
"q  c #71051B",
"w  c #6A1716",
"e  c #751516",
"r  c #452106",
"t  c #4C2306",
"y  c #432A05",
"u  c #45270A",
"i  c #502506",
"p  c #5C2B0F",
"a  c #46300F",
"s  c #442915",
"d  c #463216",
"f  c #7A2019",
"g  c #4F0A33",
"h  c #6F0927",
"j  c #4F2929",
"k  c #47392A",
"l  c #553D29",
"z  c #463B37",
"x  c #583838",
"c  c #702E2E",
"v  c #625010",
"b  c #494239",
"n  c #4D423D",
"m  c #574A31",
"M  c #564837",
"N  c #6C4E3A",
"B  c #6B6B34",
"V  c #120F48",
"C  c #060457",
"Z  c #140951",
"A  c #2E0B52",
"S  c #1F205F",
"D  c #34314F",
"F  c #070565",
"G  c #160567",
"H  c #0B0875",
"J  c #100A7A",
"K  c #25106B",
"L  c #33326B",
"P  c #292776",
"I  c #520546",
"U  c #693F42",
"Y  c #494748",
"T  c #564B46",
"R  c #5C5348",
"E  c #4D4D50",
"W  c #585454",
"Q  c #5C5B5C",
"!  c #754F4C",
"~  c #665844",
"^  c #655A57",
"/  c #79664C",
"(  c #6F6B54",
")  c #7B6B52",
"_  c #515170",
"`  c #5F6075",
"'  c #676564",
"]  c #6C6C6C",
"[  c #746C69",
"{  c #7A7469",
"}  c #6A6A74",
"|  c #747373",
" . c #7C7978",
".. c #890709",
"X. c #950506",
"o. c #9A0708",
"O. c #930D0A",
"+. c #8F0913",
"@. c #891718",
"#. c #971919",
"$. c #A80709",
"%. c #B30405",
"&. c #BA0809",
"*. c #AA0913",
"=. c #A71716",
"-. c #B61817",
";. c #8E2711",
":. c #88241C",
">. c #9A1921",
",. c #892626",
"<. c #992B2B",
"1. c #87382A",
"2. c #8D2E30",
"3. c #87393A",
"4. c #943836",
"5. c #A52726",
"6. c #A23233",
"7. c #C50404",
"8. c #CB0303",
"9. c #C40B0B",
"0. c #C90A0A",
"q. c #D30405",
"w. c #DC0404",
"e. c #D50809",
"r. c #C31112",
"t. c #E40303",
"y. c #EC0303",
"u. c #F30202",
"i. c #FD0202",
"p. c #917716",
"a. c #89463A",
"s. c #864949",
"d. c #875C48",
"f. c #94504F",
"g. c #895656",
"h. c #80684D",
"j. c #97664F",
"k. c #836C53",
"l. c #897559",
"z. c #96795A",
"x. c #A6795A",
"c. c #905F61",
"v. c #866868",
"b. c #966869",
"n. c #887B68",
"m. c #937D61",
"M. c #867A75",
"N. c #977677",
"B. c #AA7975",
"V. c #C17B7C",
"C. c #989A1A",
"Z. c #B6B819",
"A. c #91922E",
"S. c #918856",
"D. c #838368",
"F. c #978567",
"G. c #9C8463",
"H. c #89827B",
"J. c #988A77",
"K. c #A68A67",
"L. c #B48964",
"P. c #AC926D",
"I. c #A58E70",
"U. c #AD9773",
"Y. c #B59B76",
"T. c #BA9E76",
"R. c #BCA179",
"E. c #C6A77D",
"W. c #CBAB7E",
"Q. c #06058A",
"!. c #18108E",
"~. c #060598",
"^. c #31318C",
"/. c #0604A2",
"(. c #0302AB",
"). c #110EAD",
"_. c #0504B7",
"`. c #3434A9",
"'. c #504F8D",
"]. c #5F6484",
"[. c #68688F",
"{. c #0403C7",
"}. c #0201D3",
"|. c #0201DC",
" X c #0E0EDC",
".X c #1112D3",
"XX c #0100E3",
"oX c #0101EC",
"OX c #0100F4",
"+X c #0000F9",
"@X c #907F8A",
"#X c #B77F80",
"$X c #C27F80",
"%X c #858383",
"&X c #898A89",
"*X c #8C8C8B",
"=X c #978B8A",
"-X c #908F8F",
";X c #959493",
":X c #9B9894",
">X c #9C9C9B",
",X c #AA8A8A",
"<X c #A69999",
"1X c #B29393",
"2X c #A8A49D",
"3X c #8E8EA6",
"4X c #B29FA0",
"5X c #A5A4A4",
"6X c #AAA5A5",
"7X c #ACABAB",
"8X c #B5A9A9",
"9X c #B3B3B3",
"0X c #B0B0B4",
"qX c #B8B8B7",
"wX c #BCBBBB",
"eX c #D99B9B",
"rX c #C6AD82",
"tX c #CCAD81",
"yX c #CEB184",
"uX c #D3B485",
"iX c #D7B888",
"pX c #DDBC8B",
"aX c #E1BE8C",
"sX c #D79FA0",
"dX c #CBAAAA",
"fX c #C3B7B7",
"gX c #BCC1BF",
"hX c #E4C18E",
"jX c #E9C58F",
"kX c #EAC591",
"lX c #EBC792",
"zX c #F3CD96",
"xX c #F5CF99",
"cX c #F6D09A",
"vX c #F9D199",
"bX c #C1C0BE",
"nX c #BEC2C3",
"mX c #C4C4C4",
"MX c #C8C7C6",
"NX c #CCCCCC",
"BX c #D0CFCF",
"VX c #CED2D2",
"CX c #D4D4D4",
"ZX c #D7D9D8",
"AX c #DBDCDB",
"SX c #E0DFDF",
"DX c #DDE0DE",
"FX c #DDE1E1",
"GX c #E4E4E4",
"HX c #E8E9E7",
"JX c #EBEBEB",
"KX c #EFF0EF",
"LX c #F3F3F3",
"PX c #F7F8F8",
"IX c #FBFBFB",
/* pixels */
"IXIXJXAXCXMXMXNXCXGXPXIXIXIXIXJXAXNXMXMXNXAXLXIXIXIXIXLXZXnXqX0X0XwXmXVXAXFXFXDXCXNXgXwXMXCXCXGXLXIXIXIXIXLXAXCXMXMXMXCXGXPXIXIX",
"IXPXHXAXCXNXNXCXAXGXPXIXIXIXPXJXAXCXCXCXCXAXHXJXJXJXJXZXqX<X<X=X=X<X<X8X8XfXfX8X8X6X<X6XqXmXBXAXLXIXIXIXIXLXAXCXCXNXNXCXGXLXIXIX",
"LXJXHXGXAXAXAXAXGXGXJXLXLXJXJXHXGXAXAXAXDXAXZXVXMXnXwX6XN.g.! ! ! ! s.s.g.g.g.g.s.s.s.v.=X7XmXAXHXLXLXLXJXHXGXAXAXAXAXAXGXHXJXLX",
"GXGXGXGXHXHXHXHXHXGXGXGXGXGXGXGXHXHXGXDXCXmX8X<X,XB.B.b.4.,.@.+.@.@.@.@.e e e w w w f c g.N.<XwXNXAXSXGXGXGXGXHXHXHXHXHXGXGXGXGX",
"CXCXGXHXPXIXIXPXLXGXAXCXCXCXAXGXLXLXHXCX8X=Xb.s.4.<.<.5.-.0.q.e.e.8.7.$.+.e e e w e e e ,.3.g.N.:X8XmXCXCXAXHXPXIXIXIXLXGXAXCXCX",
"CXCXGXHXLXIXIXPXJXGXAXCXCXCXCXAXGXAXMX8XB.f.<.=.$.%.%.7.w.y.u.u.y.e.r.-.<.4.3.3.3.3.3.2.e e c s.g.N.<X9XMXAXJXPXPXIXIXLXGXAXCXCX",
"GXGXGXGXGXGXGXGXGXGXGXGXHXGXAXNXqX<XN.f.6.-.r.e.t.t.t.y.u.u.y.w.9.=.<.f.B.,X,X,X,X,X,Xb.c w @.#.,.3.^ %XgXFXGXHXGXGXGXGXGXGXGXGX",
"PXLXHXGXAXCXCXAXAXGXJXJXGXCXfX4XB.c.4.#.&.q.t.u.i.i.i.i.i.t.8.$.>.3.c.@X1XdXdXdXdXdXfX=XT 7 0 ....w j Q 5XNXCXAXAXAXAXAXGXJXLXLX",
"IXPXHXGXCXCXCXCXAXGXLXGXmX6XN.c.4.5.r.e.t.u.u.i.i.i.i.i.i.w.o.e c [ 4XdXeXeXeXeXeXsXdX=XY & 4 0 9 4 & z  .5XwXMXNXCXCXAXGXLXPXIX",
"LXJXHXGXAXAXAXAXGXGXGXNX>Xv.s.,.*.7.t.u.i.i.i.u.u.u.u.y.w.%.0 8 z ' <XdXrXB.V.$XV.B.#Xb.x 8 9 0 0 9 7 j ! b.,X<X8X8X9XfXZXGXJXLX",
"AXAXGXHXJXLXLXKXHXFXNX5X' x @.*.q.t.u.i.i.i.u.t.t.w.e.7.$...4 7 s x / g.s.s.s.g.s.s.s.3.,.+.o.o.o.o.X.O.#.<.f.g.v.v.M.=XqXNXCXCX",
"CXCXGXHXPXPXLXHXAXfX<Xv.c e o.7.y.i.i.u.y.t.q.7.&.%.%.$.o...0 9 w e ,.,.:.:.,.,.,.,.@.#.-.9.8.8.8.8.8.8.8.&.=.<.2.3.a.g.N.<X9XwX",
"ZXAXGXHXLXJXDXMX8X=Xg.2.#.&.q.t.u.i.u.t.8.%.$.X.......o.%.&.&.&.&.&.9.9.9.9.9.9.9.9.0.q.t.y.y.u.u.y.u.u.y.t.e.0.9.-.=.,.c ^ -X7X",
"GXGXGXHXHXZXwX>Xv.s.,.*.0.t.y.u.u.t.w.7.%.$.o.X.X.X.X.$.7.w.t.t.t.w.8.7.8.7.7.7.7.7.8.8.q.w.w.w.w.w.w.w.w.q.q.8.8.&.$.@.j ^ ;X9X",
"PXPXJXGXZXqX&X^ x e *.e.y.u.u.y.w.7.$.X.X.$.%.7.8.q.8.q.w.t.t.t.q.&.$.O.O.O.O.O.O.O.O.O.O.O.O.O.O.O.O.O.............@.c g.=XwXCX",
"PXLXGXNX9X-X^ z 7 0 7.u.u.y.t.q.&.$.o.X.$.&.8.w.w.e.0.9.9.9.9.&.-.>.,.1.1.1.1.1.1.1.1.1.1.1.1.1.1.1.1.f 8 8 c c 3.s.s.b.<XwXZXGX",
"GXAXmX6XM.! x 8 9 ..8.t.w.8.%.$.o.$.%.7.w.t.w.8.&.=.#.:.:.:.:.,.1.a.d.z.x.L.L.L.L.L.L.L.L.L.z.j.z.z.x.h.s 1 ^ @X<X8X8XqXNXAXGXGX",
"qX8X,Xb.s.,.e ....%.e.w.7.%.X.....X.%.7.e.e.0.-.5.4.d.d.d.d.d.d.d./ / l.Y.yXiXiXiXiXuXyXE.U.F.l.l.F.F.) 1 < ' ;XwXVXZXFXGXGXGXAX",
"M.v.s.5.-.9.8.8.8.q.t.q.%.X...0 0 ....X.X.O.<.a.j.x.T.W.W.W.W.T.K./ M ~ P.pXkXkXzXjXpXtXP.l.~ M M ~ ) ~ < < W  .7XNXGXJXGXAXCXCX",
"U c #.$.8.w.w.e.0.0.9.&.O.0 0 9 9 9 9 9 4 w c j.K.E.hXzXzXzXcXhXY.k.k M P.hXxXzXkXpXtXY.G.k.~ M M ~ ) / M b ^ M.:X9XNXZXZXCXCXCX",
"c f =.&.8.7.&.=.#.:.:.:.f w 8 8 6 6 6 # o - N z.R.pXkXzXzXxXcXhXR.l.M N U.hXzXzXiXR.G.z.G.K.G.G.G.G.K.K.G.F.F.I.J.J.=X<XwXNXAXGX",
"! c #.$.$.=.5.4.a.N N N a.N l s = + * * + = m ) K.W.hXzXzXzXxXkXtXP.k.l.E.kXzXzXuXT.G.G.Y.E.W.W.W.W.W.W.W.W.W.E.Y.I.n.M.-X6XMXAX",
"=Xv.x 8 c a.j.x.L.K.k.l.K.K./ k = + * y * * - k N G.uXxXzXzXzXzXhXuXE.tXaXzXzXzXhXpXtXtXpXhXkXkXkXjXjXjXkXkXkXkXaXyXY.m.R ' 5XmX",
"7X%Xz = N l.Y.W.rXU.l.l.R.R.F.~ k - * a a * + = k ) tXxXzXzXaXuXW.E.E.E.W.W.W.W.W.E.E.uXhXzXzXcXvXvXvXvXvXvXxXzXhXuXY.m.T Q ;X9X",
"5X .3 1 l.E.pXhXtXG.R R F.R.U.G./ m k - - = % = k k.tXxXcXaXT.G.k./ ) ) h.) h.) ) h.k.G.E.pXkXzXvXvXvXvXvXxXkXaXtXU.F.n.{ %X5XqX",
"5X%XY z F.yXkXzXuXP./ ~ z.P.R.T.P.z.~ m m m m M / G.uXxXcXiXG.~ k k k m l l l l m m m ~ z.U.W.iXaXhXhXhXhXpXtXR.U.J.J.=X2X9XwXmX",
"qX:X^ R n.U.uXhXhXuXT.K.F.G.U.E.uXuXT.P.P.P.P.P.T.tXhXcXcXuXl.b = + - a a a a a a a d d m N l.K.T.R.R.T.T.P.F.n.H.;X7XwXNXCXAXAX",
"CXwX-X .M.J.U.E.tXtXE.P.l.l.G.Y.uXaXaXaXpXpXpXaXhXkXzXzXcXiXm.M - + * * y y y y y y y * * d m / ) k.k.l.F.J.M.H.-X5XmXCXGXHXJXJX",
"LXGXNX9X;XH.H.n.F.m.m.l.) ) ) l.K.R.pXkXkXjXjXjXkXjXjXzXxXaXY.l.N k ; * y y y y y y y y y u a d ; ; k T { =X<X7XqXmXMXCXGXLXPXIX",
"PXLXHXCX9X>X-XH.M.n.n.n.{ { { n.F.I.Y.T.T.T.T.T.T.T.R.E.pXpXtXU.z./ m k s - * * * a a a a * * = = < 3 Q %X6XwXNXCXCXCXAXGXJXPXPX",
"GXGXGXGXAXCXMXwX7X2X:X;X;X:X>X>X:XH.( M M R W W W ^ ~ k.P.E.E.R.P.F.) R 3 , % % = - k k k k ; z Y ^  .>XwXNXAXGXGXHXHXGXGXGXGXGX",
"CXAXGXHXPXPXJXFXCXmXqX9X9X9X0X7X>X{ x & & & 2 A S S 2 z ^ l.z.x.x.z.h.R D V : : , 3 E ^ ] [ [ [ M.;X7XmXCXGXJXLXLXPXPXJXGXAXAXCX",
"CXCXGXJXPXIXIXLXHXAXCXMXMXmX9X<X@Xg.c 4 4 7 , A G F C V 2 j l c 1.,.c x A G F C S L } -X7XfXfXfXwXwXMXBXCXAXJXPXPXIXIXLXGXAXCXCX",
"AXAXGXHXJXLXLXLXJXHXGXCXmX8X,XN.f.4.#.X.X...h I A G F C C > , 7 0 ..+.h I A G G K L ].@X0XmXCXAXAXAXSXSXAXGXHXJXJXJXJXJXGXGXAXAX",
"LXJXHXGXAXAXAXAXGXHXJXCX>XM.s.4.5.r.e.w.w.q.&.+.h g Z F H H A g h +.$.&.*.+.g A K K P ^.'.[.5XgXZXHXKXLXLXHXGXAXAXAXAXAXGXJXJXLX",
"IXPXHXGXCXCXCXCXAXAXDXwX| x w ..%.8.t.u.i.i.y.q.$.h , C ~./.!.K I h +.%.%.$.+.h A G H J !.^.[.3X0XBXGXKXPXKXGXCXCXCXCXAXGXLXPXIX",
"LXLXHXGXAXAXAXAXCXNXwX-XE & 7 0 X.%.%.8.t.u.i.t.&.0 , C ~.{.{._.!.A g 9 ..o.X.q g A G Q./.).^.'.[.3X0XVXGXJXGXAXAXAXAXAXGXJXLXLX",
"GXGXGXGXGXGXGXAXCX9X*X' Y 1 j c <.5.5.5.r.e.w.8.$.q , F (.}.|.{.!.K 1 p ;.;.O.0 g A !.(.{.{._.!.^.].-X7XwXMXCXDXGXGXGXGXGXGXGXGX",
"CXCXGXHXPXIXPXGXmX;XQ Y Q [ M.N.N.N.N.c.4.#.O...h g G ~.{.}._.~.P Y B p.p.p.v s , G _.|.XXoX|..X`.` S.S.D.-XwXAXLXIXIXLXGXAXCXCX",
"CXCXGXHXJXJXGXNX7X&X' ' -X7XqXwXwXwXqX<XN.s.c j g A ~._.|.}.(.J D N A.Z.Z.C.v < Z Q.{.OX+X+X+X X`.` S.A.B ' >XMXGXPXIXLXGXAXCXCX",
"GXGXGXAXCXmX7X>X;X;X5XwXCXGXHXJXJXJXHXAXMX4XM.^ D K /.{.|.}./.J D B C.Z.Z.C.B 3 F ~.}.OX+X+XOX X`.} S.A.B Q %X7XMXAXGXHXGXGXGXGX",
"LXJXHXNX5X*X%X&X;X5XwXCXJXIXLXJXHXKXIXIXKXZX9X-X].^.!.(.{.}._.Q.P E B A.A.B E P Q._.|.OXOX+X+X X`._ ) A.) [ | %X>XqXCXGXGXHXJXLX",
"IXPXHXwX] W  .;XqXwX5X9XAXGXCXmXwXmXJXIXPXKXGXMX5X].S F (.}.|.{.).!.P L L P !.).{.|.oXOXOX+X+X|.).P D ( :X>X| Q ] &XwXAXGXLXPXIX",
"PXLXGX7XW 3 ] >XmXwX&X*XmXCXqX>X*X5XAXLXGXCXCXbX>X} D C /.}.oXoX|.{.(.~.~.(.{.}.oXOXOXOXOX+X+X|.(.H > E :X>XQ b E  .wXGXHXJXLXLX",
"SXGXAX7XW 3 | 5XmX9X] ] wXMX5X%X| *XCXAXqX;X%X| Q D V F (.|.oX+XoXXXXX|.|.|.XXoXOX+X+X+X+X+X+XXX(.H : 2 ] ] 3 2 E %XNXJXHXGXAXAX",
"CXCXAX9X' E | >XwX7X .%XmXCXqX>X&X5XAXSXqX&X' Y 2 V F Q._.XXOX+X+X+X+X+X+X+X+X+X+X+X+X+X+XOXoX}./.H V 3 Q Q 3 3 Q ;XAXPXGXAXCXCX",
"CXAXAXwX%X]  .*X5XqXwXNXHXJXGXCXCXAXKXLXDX9X| Y V C ~.{.|.oXOX+X+X+X+X+X+X+X+X+X+X+X+X+XOXXX}._.!.P E Q ] ] Q '  .7XAXLXGXAXCXCX",
"GXGXGXNX5X*X%X&X>X7XmXNXCXCXCXBXNXCXCXCXBX7X] D > C ~.{.{.}.|.XXoXOXOXOXOXOXOXOXOXoXoXXX}.{.).^.'.[.&X-X*X%X%X&X>XwXAXHXGXGXGXGX",
"PXLXHXAXmXqX5X>X;X*X*X*X%X%X@XH.H.%X%X%XH.[ Y < : : F H H Q.(.{.|.XXXXXXXXXXXXXXXX|.}._.~.!.^.'.3X0XNXNX9X5X7X9XwXMXCXAXGXJXLXPX",
"IXPXHXGXAXNXmX9X5X;X&X .W Y Y b n n n n n z 1 % . . > > V Z H Q./.(.(.(.(.(.(.(.(.(./.Q.C V D ' ;XwXAXGXMXmXMXNXCXCXCXAXGXLXPXIX",
"JXHXGXGXGXAXAXCXBXmX9X&XE < % % & = = = - & + + + + & & & , > V C C C C Z Z Z Z Z Z Z > : . < b ' =XqXNXCXAXAXAXAXAXAXGXGXHXHXJX",
"AXAXGXGXHXJXJXJXGXCXqX%XY %     X o o o o o o o @ # r r r # + . . . . . . . % % % % % % O o $ ; n ^ M.5XMXGXHXJXJXJXJXHXGXGXAXAX",
"CXCXAXHXPXIXIXLXFXwX*X^ k % + X o o o o o o o o @ # r t t r # + O O O O O O $ # # 6 6 6 6 6 r u - 1 z ' 7XCXHXPXIXIXIXLXGXAXCXCX",
"CXAXGXHXLXPXIXJXCX5X' z - $ $ @ # # # @ @ @ @ # # 6 t i i t 6 # # @ @ o X X @ 6 r t t t t t i 6 @ O % Y >XCXHXLXPXPXPXLXGXAXZXCX",
"HXHXGXGXGXGXGXAXwX&Xz % $ r r r r r r r r r r r r r t t t t t r r r r @     o # r i t t t i i 6 @ O % E 6XAXGXGXGXGXGXGXGXGXHXHX",
"PXLXHXGXAXCXAXNX9X .<   @ r t i i i i i t t t t i i t t t i t i i t t @     X # r t t t t t r 6 $ & 1 ' qXGXAXAXCXCXCXAXGXJXLXPX",
"IXPXHXGXCXCXCXNX9X .<   o r t i i i i i i t t t t t t t t t t t t r r @     X @ r r r r r 5 6 # ; z Q &XMXGXAXAXCXCXCXAXGXJXPXIX",
"JXJXHXGXAXAXGXCXwX%X2   o @ 6 r r r r r r r t t t t t t t t t r r r * $     O $ * r r r r s d l T ' &X7XCXGXGXSXAXAXAXGXGXHXJXJX",
"AXAXGXHXJXPXPXHXMX*Xb .   X o @ # 5 5 5 5 5 5 5 5 5 5 5 5 5 5 6 r * - = % % % = - - - ; ; k ^ { *X<XqXmXCXAXHXLXLXLXLXJXGXAXAXAX",
"CXCXGXHXPXIXIXLXCX7X] b < = = - s s s s s s s s s s s s s s s s k M T R E E T T R R ^ ^ ^ [ -X7XwXmXCXCXCXAXHXPXIXIXIXLXGXAXCXCX",
"AXAXGXHXJXLXLXJXGXNX7X*X] W T Y n n n n n n T T T T T T T n n T ^  .:X6X5X5X5X5X6X7X7X7X7XqXMXCXCXAXAXAXAXGXHXJXLXLXLXJXGXAXAXAX",
"HXGXGXGXGXGXGXGXGXGXAXMX7X;X&X%X .| | | |  .%X&X*X*X*X&XM. .|  .*X5XMXAXAXAXAXAXAXAXCXCXCXAXAXGXHXHXHXGXGXGXGXGXGXGXGXGXGXGXGXGX",
"IXPXHXGXCXCXCXCXAXGXKXLXGXAXCXMXwX9X9X9X9XwXNXCXAXAXAXCXmXwX9X9XqXmXAXHXLXPXPXLXJXGXCXCXCXCXAXGXJXPXIXPXPXJXGXCXCXCXCXAXGXJXPXIX",
"IXIXJXAXCXMXMXNXCXGXIXIXIXIXIXLXAXCXVXNXCXAXKXIXIXIXIXIXHXAXCXNXNXCXGXJXIXIXIXIXPXHXCXNXNXNXCXAXLXIXIXIXIXLXAXCXNXMXMXCXGXPXIXIX"
};
