/* XPM */
static char *result[] = {
/* columns rows colors chars-per-pixel */
"50 50 170 2 ",
"   c #010101",
".  c #0C0404",
"X  c #060907",
"o  c #080807",
"O  c #060709",
"+  c #0C0C0C",
"@  c #100303",
"#  c #100F0F",
"$  c #141313",
"%  c #1E1613",
"&  c #1B1A14",
"*  c #1C1C1C",
"=  c #231D14",
"-  c #211E1D",
";  c #1D201F",
":  c #22211F",
">  c #3B301C",
",  c #1B1F21",
"<  c #0D2625",
"1  c #032D27",
"2  c #092A26",
"3  c #032D28",
"4  c #132423",
"5  c #102824",
"6  c #0A352D",
"7  c #0D3731",
"8  c #073B33",
"9  c #232222",
"0  c #282727",
"q  c #282A25",
"w  c #2B2A2B",
"e  c #2F312F",
"r  c #30312F",
"t  c #3C3728",
"y  c #2F3131",
"u  c #353534",
"i  c #3B3532",
"p  c #393B36",
"a  c #393739",
"s  c #333E3C",
"d  c #3C3C3B",
"f  c #51392F",
"g  c #473D37",
"h  c #06463C",
"j  c #0A443B",
"k  c #26443F",
"l  c #5E453C",
"z  c #644337",
"x  c #586738",
"c  c #064E43",
"v  c #254741",
"b  c #234D43",
"n  c #294C43",
"m  c #354D48",
"M  c #394D4A",
"N  c #29594F",
"B  c #245B52",
"V  c #196F61",
"C  c #1B7365",
"Z  c #187A6B",
"A  c #454444",
"S  c #484745",
"D  c #4C4A46",
"F  c #4C4C4B",
"G  c #514B4A",
"H  c #4F5351",
"J  c #565654",
"K  c #585755",
"L  c #5D5D59",
"P  c #69574D",
"I  c #69594E",
"U  c #675C55",
"Y  c #63615C",
"T  c #69635F",
"R  c #7A6355",
"E  c #7D6A56",
"W  c #776D5E",
"Q  c #666562",
"!  c #6D6967",
"~  c #7D6C63",
"^  c #716D6C",
"/  c #71706D",
"(  c #767370",
")  c #787672",
"_  c #7C7B76",
"`  c #777B78",
"'  c #7D7C79",
"]  c #854828",
"[  c #8D583E",
"{  c #A25D38",
"}  c #AC6A3D",
"|  c #8E614E",
" . c #93664A",
".. c #876756",
"X. c #8A6351",
"o. c #966D57",
"O. c #9C6F54",
"+. c #A06B4A",
"@. c #B6794B",
"#. c #826C62",
"$. c #8E7768",
"%. c #86796E",
"&. c #88786F",
"*. c #977C66",
"=. c #847672",
"-. c #847973",
";. c #807E7A",
":. c #188172",
">. c #7F807B",
",. c #D7803E",
"<. c #B68057",
"1. c #B5815A",
"2. c #9A826C",
"3. c #83817B",
"4. c #AE8462",
"5. c #AB957C",
"6. c #B79071",
"7. c #D98742",
"8. c #C38353",
"9. c #CE8D58",
"0. c #EBA75E",
"q. c #F3AA57",
"w. c #F3A95C",
"e. c #C28E63",
"r. c #CE9E6F",
"t. c #D99C65",
"y. c #DDA97B",
"u. c #ECAB63",
"i. c #E8AB6D",
"p. c #F3A862",
"a. c #E8AB72",
"s. c #E4AB79",
"d. c #249C8B",
"f. c #2A9B89",
"g. c #15AF9A",
"h. c #0CB39E",
"j. c #15B29E",
"k. c #1CB09C",
"l. c #29AD99",
"z. c #36AB99",
"x. c #20B19E",
"c. c #42A795",
"v. c #858380",
"b. c #8B8A84",
"n. c #96938D",
"m. c #9B9590",
"M. c #9F9D96",
"N. c #9F9D98",
"B. c #AA9784",
"V. c #A29E97",
"C. c #A19E99",
"Z. c #A4A19B",
"A. c #A4A39B",
"S. c #ADA9A5",
"D. c #B1ADA7",
"F. c #BCBCB6",
"G. c #BEBCB8",
"H. c #C0BCB8",
"J. c #FCCA8E",
"K. c #FBCB92",
"L. c #F4CF9E",
"P. c #F8CD9B",
"I. c #F6D19C",
"U. c #F8D098",
"Y. c #CDC3B4",
"T. c #EBD2AA",
"R. c #F3D0A4",
"E. c #F2D0A9",
"W. c #EDD1B0",
"Q. c #FBFBF9",
/* pixels */
"x x x x x x x x x x x x x x x x x x x x x x x x x x x x x x x x x x x x x x x x x x x x x x x x x x ",
"x x x x x x x x x x x x x x x x x x x x x x x x         x x x x x x x x x x x x x x x x x x x x x x ",
"x x x x x x x x x x x x x x x x x x x x x x x x         x x x x x x x x x x x x x x x x x x x x x x ",
"x x x x x x x x x x x x x x x x x x x x x x x   k b v k   x x x x x x x x x x x x x x x x x x x x x ",
"x x x x x x x x x x x x x x x x x x x x x     N z.l.z.c.n     x x x x x x x x x x x x x x x x x x x ",
"x x x x x x x x x x x x x x x x x x x x x     B l.h.x.l.b     x x x x x x x x x x x x x x x x x x x ",
"x x x x x x x x x x x x x x x x x x x     c c Z j.h.k.g.C c c     x x x x x x x x x x x x x x x x x ",
"x x x x x x x x x x x x x x x x x x x     c c :.g.h.h.k.Z c c     x x x x x x x x x x x x x x x x x ",
"x x x x x x x x x x x x x x x x x x x     c c C f.d.d.f.V c c     x x x x x x x x x x x x x x x x x ",
"x x x x x x x x x x x x x x x x x x x     c c c c c c c c c c     x x x x x x x x x x x x x x x x x ",
"x x x x x x x x x x x x x x x x x x x     c c c c c c c c c c     x x x x x x x x x x x x x x x x x ",
"x x x x x x x x x x x x x x x x x x x     6 8 j c c c c j 8 6     x x x x x x x x x x x x x x x x x ",
"x x x x x x x x x x x x x x x x x x x     2 1 8 c c c c 8 1 2     x x x x x x x x x x x x x x x x x ",
"x x x x x x x x x x x x x x x x x x x     < 2 7 j h h j 6 2 5 o o x x x x x x x x x x x x x x x x x ",
"x x x x x x x x x x x x x x x x       - 9 * 4 < 1 3 3 1 4 4 ; 4 *       x x x x x x x x x x x x x x ",
"x x x x x x x x x x x x x x x x       * * 9 , 5 2 3 3 2 4 * : - *       x x x x x x x x x x x x x x ",
"x x x x x x x x x x x x x x x x + + * q q y y s m m M M s y e q w $ + + x x x x x x x x x x x x x x ",
"x x x x x x x x x x x x x     O * * 0 u d F F Q ` ` ` ` Y F F u u , * *       x x x x x x x x x x x ",
"x x x x x x x x x x x x x O O o 9 9 w a d F F Q ;.3.3.3.U G F d a 0 9 &       x x x x x x x x x x x ",
"x x x x x x x x x x x     $ * 9 u a d F F F F ( F.F.F.F./ F F F F a a r * - $     x x x x x x x x x ",
"x x x x x x x x x x x O   $ * * u a d F F F F ( F.F.F.F./ F F F F a u r 9 - #     x x x x x x x x x ",
"x x x x x x x x x x x     S ' ) ) ` L u d F F Q _ -._ >.L F F u a / ` ` _ ` d     x x x x x x x x x ",
"x x x x x x x x x x x     S ' _ ' _ U u s F F Q ' ' ' _ L D F u i / ' _ _ ` g     x x x x x x x x x ",
"x x x x x x x x x x x     S _ ' _ _ L a g F F Q ' >.' >.Y G G d u / ' _ ;.' d     x x x x x x x x x ",
"x x x x x x x x x x x     w F D _ _ b.V.C.N.C.S.F.F.F.F.S.V.V.N.M.3.` ^ J G 0     x x x x x x x x x ",
"x x x x x x x x x x x O   w F F ' ' b.V.Z.C.C.D.H.H.F.F.S.V.M.V.V.3.' ^ J F 0     x x x x x x x x x ",
"x x x x x x x x x x x   O * w w n.n.m.C.Z.F.F.F.F.F.F.F.F.F.F.C.M.n.n.) u e &     x x x x x x x x x ",
"x x x x x x x x x x x     $ 9 - C.V.Z.V.A.F.F.F.F.F.F.F.F.F.F.V.C.C.C.' 9 * #     x x x x x x x x x ",
"x x x x x x x x x x x O   # & $ ( / 3.Z.n.3.;.Z.Y.Y.Y.Y.V.;.' G.G.v.( L - $ +     x x x x x x x x x ",
"x x x x x x x x x x x x x O     9 : : Q.Q.    W T.R.E.W.I     Q.Q.S 9 &     x x x x x x x x x x x x ",
"x x x x x x x x x x x x x O   * & * 4 Q.Q.    E R.I.I.E.I     Q.Q.d * &     x x x x x x x x x x x x ",
"x x x x x x x x x x x x x     * & r u Q.Q.    E L.I.I.E.I     Q.Q.A * & O   x x x x x x x x x x x x ",
"x x x x x x x x x x x x x     p i F H Q.Q.    E I.U.U.R.I     Q.Q.Q i p o   x x x x x x x x x x x x ",
"x x x x x x x x x x x x x .   p i F S Q.Q.    | K.K.J.P.X.    Q.Q.T p p X   x x x x x x x x x x x x ",
"x x x x x x x x x x x x x   X w w i l ] ] y.s.i.u.u.0.u.a.s.s.] ] g w w .   x x x x x x x x x x x x ",
"x x x x x x x x x x x x x O O w w i z ] ] 0.w.w.p.w.q.q.q.w.p.] ] f w w O O x x x x x x x x x x x x ",
"x x x x x x x x x x x o O l L Q ^ ^ #.o.+.] ] ] ] ] ] ] ] ] ] O.O.~ ^ ! Q Q       x x x x x x x x x ",
"x x x x x x x x x x x . . D _ ` ' ' -.-...] ] ] ] ] ] ] ] ] ] $.=.' ;.' ' '       x x x x x x x x x ",
"x x x x x x x x x     P E 2.5.B.    9 F H X.| | X.| | | | | X.F F 9     5.5.*.R U     x x x x x x x ",
"x x x x x x x x x     4.q.q.q.y.    9 F F =.-.&.%.&.&.%.%.%.-.F F 9     r.w.q.q.6.    x x x x x x x ",
"x x x x x x x x x     1.w.q.q.a.    9 F F ) ' ;._ 3._ >.' ' ' F F 9     t.q.q.q.e.    x x x x x x x ",
"x x x x x x x x x     1.q.q.7.9.    9 F F J J J J J J K J J K F F 9     <.7.q.q.e.@   x x x x x x x ",
"x x x x x x x x x     @.q.w.7.8.    4 F F F F F D D F F F F F F F 9     @.,.q.q.e.@ O x x x x x x x ",
"x x x x x x x x x      .@.} {  .    - F F F F F F F F F D F F F F 9     [ { } @. .@ O x x x x x x x ",
"x x x x x x x x x x x               & u p F F F F F F F F F F u i 9               x x x x x x x x x ",
"x x x x x x x x x x x               & u u F F F F F F F F F F i u 9               x x x x x x x x x ",
"x x x x x x x x x x x x x x x x     % t t t t :         q t t t t 9 O O x x x x x x x x x x x x x x ",
"x x x x x x x x x x x x x x x x     % > > > > &         = > > > > : O O x x x x x x x x x x x x x x ",
"x x x x x x x x x x x x x x x x     % > > > > =         = > > > > 9 X   x x x x x x x x x x x x x x ",
"x x x x x x x x x x x x x x x x x x x x x x x x x x x x x x x x x x x x x x x x x x x x x x x x x x "
};
