/* XPM */
static char *result[] = {
/* columns rows colors chars-per-pixel */
"50 50 16 1 ",
"  c black",
". c #1F1B15",
"X c #213F2F",
"o c #443013",
"O c #346A3D",
"+ c #346B3D",
"@ c #356C3D",
"# c #366D3E",
"$ c #765F2A",
"% c #586738",
"& c #76612D",
"* c #578A45",
"= c #598C46",
"- c #5A8D46",
"; c #77A947",
": c #93C147",
/* pixels */
"%%%%%%%%%%%%%%%%%%%%%%%%%%%%%%%%%%%%%%%%%%%%%%%%%%",
"%%%%%%%%%%%%%%%%%%%%%%%%%%%%%%%%%%%%%%%%%%%%%%%%%%",
"%%%%%%%%%%%%%%%%%%%%%%%%%%%%%%%%%%%%%%%%%%%%%%%%%%",
"%%%%%%%%%%%%%%%%%%%%%          %%%%%%%%%%%%%%%%%%%",
"%%%%%%%%%%%%%%%%%%%%%          %%%%%%%%%%%%%%%%%%%",
"%%%%%%%%%%%%%%%%%%%  ::::::::::  %%%%%%%%%%%%%%%%%",
"%%%%%%%%%%%%%%%%%%%  ::::::::::  %%%%%%%%%%%%%%%%%",
"%%%%%%%%%%%%%%%%%  ==::::::::::==  %%%%%%%%%%%%%%%",
"%%%%%%%%%%%%%%%%%  ==::::::::::==  %%%%%%%%%%%%%%%",
"%%%%%%%%%%%%%%%%%  ==::::::::::==  %%%%%%%%%%%%%%%",
"%%%%%%%%%%%%%%%%%  ==::::::::::==  %%%%%%%%%%%%%%%",
"%%%%%%%%%%%%%%%%%  ;;;;;;;;;;;;;;  %%%%%%%%%%%%%%%",
"%%%%%%%%%%%%%%%%%  ;;;;;;;;;;;;;;  %%%%%%%%%%%%%%%",
"%%%%%%%%%%%%%%%  ++;;;;;;;;;;;;;;++  %%%%%%%%%%%%%",
"%%%%%%%%%%%%%%%  ++;;;;;;;;;;;;;;++  %%%%%%%%%%%%%",
"%%%%%%%%%%%%%  =====-================  %%%%%%%%%%%",
"%%%%%%%%%%%%%  ======================  %%%%%%%%%%%",
"%%%%%%%%%%%  XX======================XX  %%%%%%%%%",
"%%%%%%%%%%%  XX======================XX  %%%%%%%%%",
"%%%%%%%%%%%  +++++++============+++++++  %%%%%%%%%",
"%%%%%%%%%%%  +++++++********====+++++++  %%%%%%%%%",
"%%%%%%%%%%%  ++++#+++++++++++++++++++++  %%%%%%%%%",
"%%%%%%%%%%%  ++++@+++++++++++++++++++++  %%%%%%%%%",
"%%%%%%%%%%%  ++++++++++++++++++++++O+++  %%%%%%%%%",
"%%%%%%%%%%%  ++++++++++++++++++++++++++  %%%%%%%%%",
"%%%%%%%%%%%  ++++++++++++++++++++++++++  %%%%%%%%%",
"%%%%%%%%%%%  XXXX+++++++++++++++++++XXX  %%%%%%%%%",
"%%%%%%%%%%%  XXXX+++++++++++++++++++XXX  %%%%%%%%%",
"%%%%%%%%%%%  XXXXXXXXXXXXXXXXXXXXXXXXXX  %%%%%%%%%",
"%%%%%%%%%%%  XXXXXXXXXXXXXXXXXXXXXXXXXX  %%%%%%%%%",
"%%%%%%%%%%%%%  XXXXXXXXXXXXXXXXXXXXXX  %%%%%%%%%%%",
"%%%%%%%%%%%%%  XXXXXXXXXXXXXXXXXXXXXX  %%%%%%%%%%%",
"%%%%%%%%%%%%%%%  ooooXXXXXXXXXXoooo  %%%%%%%%%%%%%",
"%%%%%%%%%%%%%%%  ooooooXXXXoooooooo  %%%%%%%%%%%%%",
"%%%%%%%%%%%%%%%%%  ..ooXXXXoooo..  %%%%%%%%%%%%%%%",
"%%%%%%%%%%%%%%%%%  ....oooo......  %%%%%%%%%%%%%%%",
"%%%%%%%%%%%%%%%%%%%%%..oooo....%%%%%%%%%%%%%%%%%%%",
"%%%%%%%%%%%%%%%%%%%%%..&&&&..%%%%%%%%%%%%%%%%%%%%%",
"%%%%%%%%%%%%%%%%%%%%%..&&&&..%%%%%%%%%%%%%%%%%%%%%",
"%%%%%%%%%%%%%%%%%%%%%..&&&&..%%%%%%%%%%%%%%%%%%%%%",
"%%%%%%%%%%%%%%%%%%%%%..&&&&..%%%%%%%%%%%%%%%%%%%%%",
"%%%%%%%%%%%%%%%%%%%%%..$$$$..%%%%%%%%%%%%%%%%%%%%%",
"%%%%%%%%%%%%%%%%%%%%%..&&&&..%%%%%%%%%%%%%%%%%%%%%",
"%%%%%%%%%%%%%%%%%%%%%..&&&&..%%%%%%%%%%%%%%%%%%%%%",
"%%%%%%%%%%%%%%%%%%%%%..&&&&..%%%%%%%%%%%%%%%%%%%%%",
"%%%%%%%%%%%%%%%%%%%%%%%%%%%%%%%%%%%%%%%%%%%%%%%%%%",
"%%%%%%%%%%%%%%%%%%%%%%%%%%%%%%%%%%%%%%%%%%%%%%%%%%",
"%%%%%%%%%%%%%%%%%%%%%%%%%%%%%%%%%%%%%%%%%%%%%%%%%%",
"%%%%%%%%%%%%%%%%%%%%%%%%%%%%%%%%%%%%%%%%%%%%%%%%%%",
"%%%%%%%%%%%%%%%%%%%%%%%%%%%%%%%%%%%%%%%%%%%%%%%%%%"
};
